<?xml version="1.0" standalone="no"?>
<!DOCTYPE svg PUBLIC "-//W3C//DTD SVG 20010904//EN"
 "http://www.w3.org/TR/2001/REC-SVG-20010904/DTD/svg10.dtd">
<svg version="1.0" xmlns="http://www.w3.org/2000/svg"
 width="512.000000pt" height="512.000000pt" viewBox="0 0 512.000000 512.000000"
 preserveAspectRatio="xMidYMid meet">
<metadata>
Created by potrace 1.14, written by Peter Selinger 2001-2017
</metadata>
<g transform="translate(0.000000,512.000000) scale(0.100000,-0.100000)"
fill="#000000" stroke="none">
<path d="M543 4946 c-181 -44 -333 -201 -372 -384 -8 -39 -11 -588 -11 -2005
0 -1651 3 -1961 15 -2012 42 -181 202 -336 383 -374 38 -8 618 -11 2010 -11
2180 0 2015 -5 2143 70 75 45 151 123 191 197 61 115 58 -18 58 2128 0 2184 5
2030 -70 2156 -73 123 -201 214 -335 238 -91 17 -3942 14 -4012 -3z"/>
</g>
</svg>
